#!OML:ASF F:\VICON\USERDATA\INSTALL\rory3\rory3.ASF
:FULLY-SPECIFIED
:DEGREES
10
root 1.28185 17.9957 -2.1719799999999783 -2.46818 0.9129880000000016 1.5750099999999918
lfemur 2.023909999999989 -0.03221490000000493 -26.402899999999992
ltibia 23.225600000000014
lfoot -17.594999999999988 1.4517899999999964
ltoes -4.722549999999995
rfemur -31.144700000000014 -3.4723600000000046 20.8067
rtibia 50.0094
rfoot -9.786179999999996 -10.061400000000003
rtoes -4.311520000000012
lowerback -1.0 -0.9675500000000015 -3.2734099999999913
upperback 0.18949000000000038 -1.6316500000000043 1.3231700000000006
thorax -6.04415 -0.6861679999999991 3.5072299999999945
lowerneck -16.3693 -3.50249 -1.73943
upperneck 20.5627 -4.75077 1.40259
head 9.24957 -2.20187 0.16526600000000014
lclavicle 5.242949999999991e-15 1.1131899999999987e-14
lhumerus -25.412899999999993 -2.3413699999999893 82.2649
lradius 29.9328
lwrist 12.675399999999998
lhand -28.2992 26.71500000000001
lfingers 7.12502
lthumb -1.6748499999999973 56.68820000000001
rclavicle 5.242949999999991e-15 1.1131899999999987e-14
rhumerus -33.9306 -22.5853 -75.6424
rradius 26.0477
rwrist 5.266009999999999
rhand -17.718 -1.0
rfingers 7.12502
rthumb 8.54248 -6.133119999999999
11
root 1.256310000000001 18.018 -1.4820500000000205 -1.4157400000000024 0.7879679999999988 1.6787999999999936
lfemur 5.130219999999995 -0.06707110000000194 -26.42160000000002
ltibia 20.18050000000001
lfoot -17.040099999999978 1.4697400000000052
ltoes -2.8874300000000064
rfemur -31.39550000000002 -2.200349999999993 20.971399999999996
rtibia 37.1137
rfoot -5.1559500000000025 -11.903799999999995
rtoes -1.7497099999999923
lowerback -1.0 -1.134690000000001 -3.7443000000000053
upperback 0.11767599999999953 -1.8722799999999988 1.52188
thorax -5.55409 -0.800685999999998 3.990199999999996
lowerneck -16.9278 -3.45032 -1.87261
upperneck 20.4113 -4.67689 1.6063499999999997
head 9.30727 -2.15099 0.25779100000000005
lclavicle -3.752059999999997e-15 8.746530000000016e-15
lhumerus -23.7237 -3.134720000000003 81.498
lradius 30.845100000000002
lwrist 13.207300000000004
lhand -30.0486 18.6476
lfingers 7.12502
lthumb -3.3644200000000004 48.6008
rclavicle -3.752059999999997e-15 8.746530000000016e-15
rhumerus -34.3657 -23.166000000000004 -75.0741
rradius 25.426900000000003
rwrist 5.251809999999998
rhand -19.5855 -1.0
rfingers 7.12502
rthumb 6.739949999999997 -9.2961
12
root 1.2149899999999998 17.9926 -0.7646239999999835 -0.9848629999999976 0.9986689999999979 2.0974300000000072
lfemur 8.840269999999961 0.1605850000000002 -26.594099999999987
ltibia 16.714900000000004
lfoot -16.281499999999998 0.5822399999999943
ltoes -4.114020000000004
rfemur -29.900300000000033 0.3735750000000031 19.929399999999983
rtibia 24.244000000000018
rfoot -5.082340000000004 -14.710200000000004
rtoes -2.0630399999999938
lowerback -1.0 -1.301959999999997 -4.474289999999992
upperback -0.005620479999999886 -2.160439999999996 1.5982299999999998
thorax -5.359400000000002 -0.9260670000000017 4.509809999999996
lowerneck -17.1597 -3.44135 -1.6934600000000004
upperneck 20.6256 -4.65843 1.36339
head 9.41303 -2.15237 0.14159700000000003
lclavicle -9.243489999999986e-15 3.9756899999999946e-16
lhumerus -22.85040000000001 -3.9744699999999873 80.9423
lradius 31.670800000000007
lwrist 13.455200000000012
lhand -30.8078 14.361899999999999
lfingers 7.12502
lthumb -4.097509999999998 44.3023
rclavicle -9.243489999999986e-15 3.9756899999999946e-16
rhumerus -35.172999999999995 -23.580599999999997 -74.4208
rradius 25.032799999999998
rwrist 4.869539999999999
rhand -18.1624 -1.0
rfingers 7.12502
rthumb 8.11361 -7.599519999999999
13
root 1.1590499999999988 17.9709 -0.02321780000001894 -0.6873040000000001 1.6129099999999976 2.1857300000000004
lfemur 12.448800000000038 -0.35711700000000013 -26.206600000000016
ltibia 13.396899999999992
lfoot -14.328900000000019 -0.912678000000001
ltoes -11.331299999999992
rfemur -28.50419999999999 6.11636 17.50160000000001
rtibia 15.640900000000002
rfoot -11.885399999999997 -19.186200000000014
rtoes 7.656690000000004
lowerback -1.0 -1.470269999999998 -4.682819999999995
upperback -0.13588499999999998 -2.392309999999995 1.5788
thorax -5.216900000000001 -1.037540000000001 4.623209999999991
lowerneck -17.0242 -3.57586 -1.5553100000000009
upperneck 20.7032 -4.932 1.54381
head 9.42115 -2.24891 0.14650999999999986
lclavicle 1.9282100000000008e-14 -1.1529500000000002e-14
lhumerus -22.086699999999993 -6.090900000000024 80.8087
lradius 32.15960000000001
lwrist 12.189200000000001
lhand -32.5249 16.575599999999998
lfingers 7.12502
lthumb -5.755559999999997 46.4774
rclavicle 1.9282100000000008e-14 -1.1529500000000002e-14
rhumerus -36.596 -24.34049999999999 -73.5204
rradius 25.048700000000004
rwrist 4.5154700000000005
rhand -18.2761 -1.0
rfingers 7.12502
rthumb 8.00387 -7.24365
14
root 1.1004799999999995 17.9073 0.7155150000000123 -0.9615910000000003 1.3231899999999968 2.1047500000000134
lfemur 14.228200000000033 -0.793721999999998 -25.830400000000015
ltibia 15.912800000000026
lfoot -15.080500000000008 -1.693329999999999
ltoes -15.488600000000012
rfemur -28.293600000000026 4.835070000000007 18.797899999999984
rtibia 16.22509999999998
rfoot -10.991199999999996 -15.164799999999985
rtoes 3.561579999999999
lowerback -1.0 -1.4703900000000023 -4.732300000000011
upperback -0.0914879 -2.4045099999999957 1.71104
thorax -5.341029999999998 -1.037219999999998 4.805579999999992
lowerneck -17.3529 -3.5848500000000003 -1.7685
upperneck 20.9376 -4.91084 1.6376800000000002
head 9.57213 -2.2401 0.208529
lclavicle 2.9817699999999944e-15 -4.373259999999993e-15
lhumerus -21.703899999999994 -6.245520000000015 80.3846
lradius 33.00869999999999
lwrist 12.266000000000007
lhand -32.025 14.773600000000007
lfingers 7.12502
lthumb -5.272909999999996 44.688
rclavicle 2.9817699999999944e-15 -4.373259999999993e-15
rhumerus -37.081799999999994 -25.358400000000007 -72.6007
rradius 24.350499999999997
rwrist 5.5687999999999995
rhand -17.4421 -1.0
rfingers 7.12502
rthumb 8.80875 -5.13238
